<svg id="Layer_1" data-name="Layer 1" xmlns="http://www.w3.org/2000/svg" xmlns:xlink="http://www.w3.org/1999/xlink" viewBox="0 0 50 52"><defs><style>.cls-1,.cls-4{fill:#fff;}.cls-2{fill:none;stroke:#e6e6e6;stroke-width:2px;}.cls-3{mask:url(#mask);}.cls-4{stroke:#167db7;stroke-width:4px;}</style><mask id="mask" x="1.79" y="0" width="48.21" height="52" maskUnits="userSpaceOnUse"><g transform="translate(-417.27 -359.18)"><g id="path-2-inside-1_1901_12130" data-name="path-2-inside-1 1901 12130"><path class="cls-1" d="M441.27,361.18a24,24,0,1,1-19.42,38.11l1.55-1.13a22.09,22.09,0,1,0,17.87-35.06Z"/></g></g></mask></defs><path class="cls-2" d="M441.27,362.18h0a23,23,0,0,1,23,23h0a23,23,0,0,1-23,23h0a23,23,0,0,1-23-23h0A23,23,0,0,1,441.27,362.18Z" transform="translate(-417.27 -359.18)"/><g class="cls-3"><path class="cls-4" d="M441.27,361.18a24,24,0,1,1-19.42,38.11l1.55-1.13a22.09,22.09,0,1,0,17.87-35.06Z" transform="translate(-417.27 -359.18)"/></g></svg>